<svg width="37" height="37" viewBox="0 0 37 37" fill="none" xmlns="http://www.w3.org/2000/svg">
<path d="M17.5684 0.972006C17.6161 0.401047 18.4412 0.372235 18.5285 0.938478L19.2611 5.68876C20.207 11.8227 25.2328 16.5093 31.4177 17.025L36.2075 17.4245C36.7786 17.4721 36.8074 18.2972 36.2411 18.3846L31.4908 19.1171C25.3569 20.0631 20.6703 25.0889 20.1546 31.2738L19.7551 36.0636C19.7075 36.6346 18.8824 36.6634 18.795 36.0971L18.0625 31.3468C17.1165 25.213 12.0907 20.5263 5.90577 20.0106L1.11596 19.6112C0.545003 19.5635 0.51619 18.7384 1.08243 18.6511L5.83271 17.9185C11.9666 16.9726 16.6533 11.9468 17.169 5.76182L17.5684 0.972006Z" fill="#FFE88C"/>
</svg>
