<svg width="87" height="240" viewBox="0 0 87 240" fill="none" xmlns="http://www.w3.org/2000/svg">
<g clip-path="url(#clip0_7477_244)">
<path fill-rule="evenodd" clip-rule="evenodd" d="M43.4348 21.4732C45.6009 20.7014 47.8803 19.6756 49.638 18.1905C51.7257 16.4265 52.5747 14.1547 53.1449 11.7633C53.8768 8.69097 54.1693 5.41819 55.0569 2.34089C55.3856 1.1981 56.018 0.76613 56.2894 0.574421C56.9753 0.09017 57.6687 -0.03927 58.321 0.00927957C59.094 0.0652983 60.156 0.357821 60.8543 1.65372C60.9539 1.83921 61.0833 2.1218 61.1705 2.50896C61.234 2.79278 61.275 3.68035 61.3423 4.04634C61.5103 4.94762 61.651 5.84893 61.783 6.75519C62.2224 9.77149 62.4751 12.3334 63.8632 15.1044C65.7466 18.8664 67.6339 21.1682 70.1933 22.1877C72.6681 23.1736 75.6272 22.9882 79.4078 22.2151C79.7676 22.128 80.1236 22.0533 80.4759 21.9923C82.1428 21.701 83.7362 22.7952 84.0636 24.4559C84.391 26.1153 83.3317 27.7323 81.6797 28.0971C81.3349 28.173 80.995 28.2452 80.6589 28.3112C75.55 29.576 69.6356 34.0899 66.1985 38.0423C65.1391 39.261 63.588 42.6682 62.0058 44.8417C60.8381 46.4451 59.526 47.502 58.4243 47.8754C57.6861 48.1269 57.0637 48.0884 56.5496 47.9614C55.8026 47.7771 55.1827 47.3725 54.7072 46.7289C54.4482 46.3766 54.2079 45.9048 54.0934 45.3023C54.0386 45.0122 54.0324 44.2753 54.0337 43.9417C53.7113 42.8325 53.3166 41.7495 53.0291 40.6303C52.3431 37.9601 50.9974 36.2696 49.399 34.0363C47.9039 31.9462 46.2981 30.6329 43.9441 29.5847C43.6378 29.51 41.1667 28.905 40.2941 28.5577C39.0194 28.0485 38.4118 27.1958 38.1915 26.7364C37.8168 25.9571 37.7782 25.2762 37.8529 24.7086C37.9637 23.8708 38.3397 23.1538 39.0069 22.5749C39.4202 22.2151 40.0377 21.8653 40.8643 21.6947C41.5029 21.5616 43.1971 21.4844 43.4348 21.4732ZM57.9313 17.1211C58.0459 17.3763 58.1679 17.6328 58.2973 17.8917C61.056 23.4015 64.1407 26.4775 67.8903 27.9701L68.016 28.0187C65.5076 29.881 63.2369 31.9624 61.5016 33.9579C60.787 34.7795 59.841 36.4862 58.8189 38.2365C57.8903 35.2177 56.3715 33.084 54.4619 30.4138C53.0029 28.376 51.4742 26.8423 49.5957 25.5925C51.0535 24.8443 52.444 23.9679 53.6552 22.9446C55.6719 21.2404 57.0052 19.266 57.9313 17.1211Z" fill="#460CF6"/>
</g>
<g clip-path="url(#clip1_7477_244)">
<path fill-rule="evenodd" clip-rule="evenodd" d="M6.79567 102.084C8.96174 101.312 11.2411 100.286 12.9989 98.8011C15.0865 97.0371 15.9356 94.7653 16.5057 92.3739C17.2377 89.3016 17.5302 86.0288 18.4178 82.9515C18.7464 81.8087 19.3789 81.3767 19.6502 81.185C20.3362 80.7008 21.0295 80.5713 21.6818 80.6199C22.4549 80.6759 23.5168 80.9684 24.2152 82.2643C24.3148 82.4498 24.4442 82.7324 24.5313 83.1196C24.5948 83.4034 24.6359 84.2909 24.7031 84.6569C24.8712 85.5582 25.0118 86.4595 25.1438 87.3658C25.5832 90.3821 25.836 92.944 27.224 95.715C29.1075 99.477 30.9947 101.779 33.5542 102.798C36.029 103.784 38.988 103.599 42.7687 102.826C43.1284 102.739 43.4844 102.664 43.8367 102.603C45.5036 102.312 47.097 103.406 47.4244 105.066C47.7519 106.726 46.6925 108.343 45.0406 108.708C44.6957 108.784 44.3559 108.856 44.0198 108.922C38.9108 110.187 32.9964 114.7 29.5593 118.653C28.5 119.872 26.9489 123.279 25.3666 125.452C24.199 127.056 22.8869 128.113 21.7851 128.486C21.0469 128.738 20.4245 128.699 19.9104 128.572C19.1635 128.388 18.5436 127.983 18.068 127.339C17.8091 126.987 17.5688 126.515 17.4542 125.913C17.3995 125.623 17.3933 124.886 17.3945 124.552C17.0721 123.443 16.6775 122.36 16.3899 121.241C15.704 118.571 14.3583 116.88 12.7599 114.647C11.2648 112.557 9.65894 111.243 7.3049 110.195C6.99866 110.121 4.52759 109.516 3.65493 109.168C2.38019 108.659 1.77266 107.806 1.55232 107.347C1.17762 106.568 1.13906 105.887 1.21375 105.319C1.32454 104.481 1.7005 103.764 2.36775 103.186C2.78104 102.826 3.3985 102.476 4.22509 102.305C4.86371 102.172 6.5579 102.095 6.79567 102.084ZM21.2922 97.7317C21.4067 97.9869 21.5287 98.2434 21.6582 98.5023C24.4168 104.012 27.5016 107.088 31.2511 108.581L31.3769 108.629C28.8685 110.492 26.5978 112.573 24.8624 114.568C24.1479 115.39 23.2018 117.097 22.1798 118.847C21.2511 115.828 19.7324 113.695 17.8228 111.024C16.3638 108.987 14.8351 107.453 12.9566 106.203C14.4143 105.455 15.8048 104.578 17.0161 103.555C19.0328 101.851 20.366 99.8766 21.2922 97.7317Z" fill="#460CF6"/>
</g>
<g clip-path="url(#clip2_7477_244)">
<path fill-rule="evenodd" clip-rule="evenodd" d="M44.3535 212.924C46.5196 212.152 48.799 211.126 50.5568 209.641C52.6444 207.877 53.4934 205.605 54.0636 203.214C54.7955 200.141 55.088 196.869 55.9756 193.791C56.3043 192.649 56.9367 192.217 57.2081 192.025C57.894 191.541 58.5874 191.411 59.2397 191.46C60.0127 191.516 61.0747 191.808 61.773 193.104C61.8726 193.29 62.002 193.572 62.0892 193.959C62.1527 194.243 62.1937 195.131 62.261 195.497C62.429 196.398 62.5697 197.299 62.7017 198.206C63.1411 201.222 63.3938 203.784 64.7819 206.555C66.6653 210.317 68.5526 212.619 71.112 213.638C73.5868 214.624 76.5459 214.439 80.3265 213.666C80.6863 213.578 81.0423 213.504 81.3946 213.443C83.0615 213.151 84.6549 214.246 84.9823 215.906C85.3097 217.566 84.2504 219.183 82.5984 219.548C82.2536 219.623 81.9137 219.696 81.5776 219.762C76.4687 221.026 70.5543 225.54 67.1172 229.493C66.0578 230.711 64.5067 234.119 62.9245 236.292C61.7568 237.896 60.4447 238.952 59.343 239.326C58.6048 239.577 57.9824 239.539 57.4683 239.412C56.7213 239.228 56.1014 238.823 55.6259 238.179C55.3669 237.827 55.1266 237.355 55.0121 236.753C54.9573 236.463 54.9511 235.726 54.9524 235.392C54.63 234.283 54.2353 233.2 53.9478 232.081C53.2618 229.411 51.9161 227.72 50.3177 225.487C48.8226 223.397 47.2168 222.083 44.8628 221.035C44.5565 220.96 42.0854 220.355 41.2128 220.008C39.9381 219.499 39.3305 218.646 39.1102 218.187C38.7355 217.408 38.6969 216.727 38.7716 216.159C38.8824 215.321 39.2584 214.604 39.9256 214.025C40.3389 213.666 40.9564 213.316 41.783 213.145C42.4216 213.012 44.1158 212.935 44.3535 212.924ZM58.85 208.572C58.9646 208.827 59.0866 209.083 59.216 209.342C61.9747 214.852 65.0594 217.928 68.809 219.421L68.9347 219.469C66.4263 221.331 64.1556 223.413 62.4203 225.408C61.7057 226.23 60.7597 227.937 59.7376 229.687C58.809 226.668 57.2902 224.534 55.3806 221.864C53.9216 219.826 52.3929 218.293 50.5144 217.043C51.9722 216.295 53.3627 215.418 54.5739 214.395C56.5906 212.691 57.9239 210.716 58.85 208.572Z" fill="#460CF6"/>
</g>
<defs>
<clipPath id="clip0_7477_244">
<rect width="48.5498" height="48.5496" fill="white" transform="translate(37.2529)"/>
</clipPath>
<clipPath id="clip1_7477_244">
<rect width="48.5498" height="48.5496" fill="white" transform="translate(0.611328 80.6104)"/>
</clipPath>
<clipPath id="clip2_7477_244">
<rect width="48.5498" height="48.5496" fill="white" transform="translate(38.1689 191.45)"/>
</clipPath>
</defs>
</svg>
